<svg width="145" height="106.99999999999999" xmlns="http://www.w3.org/2000/svg">

 <g>
  <title>Layer 1</title>
  <path transform="rotate(0.538273 72.6013 53.6284)" stroke="#000" id="svg_11" d="m23.02264,36.80766c-0.10649,-1.04527 -0.16815,-2.10125 -0.16815,-3.16796c0,-18.50391 15.68268,-33.50215 35.031,-33.50215c15.01569,0 27.78939,9.05362 32.7722,21.75764c3.30132,-3.46278 8.00949,-5.6766 13.29496,-5.6766c9.96562,0 18.04236,7.72426 18.04236,17.25495c0,1.12567 -0.12891,2.22454 -0.34751,3.28589c13.29496,2.09589 23.46797,13.0578 23.46797,26.36217c0,14.80527 -12.5495,26.80172 -28.0248,26.80172l-19.07928,0l3.96271,-3.78976c2.11307,-2.02085 3.2789,-4.71174 3.2789,-7.57417c0,-2.85706 -1.16583,-5.54796 -3.2789,-7.56881l-3.11636,-2.98571c-2.24198,-2.13878 -5.25185,-3.3663 -8.2449,-3.3663c-0.15133,0 -0.30267,0 -0.4484,0.01072l0,-2.53008c0,-5.91782 -5.03325,-10.73141 -11.20992,-10.73141l-18.3058,0c-6.18227,0 -11.20992,4.81359 -11.20992,10.73141l0,2.53008c-0.15133,-0.01072 -0.30267,-0.01072 -0.454,-0.01072c-2.98744,0 -5.99731,1.22752 -8.23929,3.37702l-3.12196,2.95891c-4.37187,4.18643 -4.37187,10.98871 0,15.15905l3.9571,3.78976l-13.46872,0c-15.4809,0 -28.0248,-11.99645 -28.0248,-26.80172c-0.0056,-13.1382 9.89275,-24.0197 22.93549,-26.31393zm18.56363,37.96196l3.11636,-2.97499c2.18593,-2.08517 5.40318,-2.41215 7.15193,-0.73437c1.74875,1.67243 3.18362,0.63252 3.18362,-2.31567l0,-6.63611c0,-2.94819 2.52784,-5.36034 5.60496,-5.36034l18.30019,0c3.08273,0 5.60496,2.41215 5.60496,5.36034l0,6.63611c0,2.94819 1.43487,3.9881 3.18922,2.31567c1.74875,-1.67779 4.9716,-1.35081 7.15193,0.73437l3.11636,2.97499c2.18593,2.08517 2.18593,5.48899 0.0056,7.57417l-24.25826,23.21565c-1.08736,1.03991 -2.52784,1.55986 -3.96271,1.55986s-2.86974,-0.51995 -3.96271,-1.55986l-24.25266,-23.21565c-2.18033,-2.07981 -2.17472,-5.48899 0.01121,-7.57417z" fill="#ff4081"/>
 </g>
</svg>
